<svg width="21" height="17" viewBox="0 0 21 17" fill="none" xmlns="http://www.w3.org/2000/svg">
<path d="M20.6666 2.18014C19.9166 2.54937 19.1666 2.67245 18.2916 2.79552C19.1666 2.30322 19.7916 1.56475 20.0416 0.580138C19.2916 1.07245 18.4166 1.3186 17.4166 1.56475C16.6666 0.826292 15.5416 0.333984 14.4166 0.333984C11.7916 0.333984 9.79163 2.79552 10.4166 5.25706C7.04163 5.13398 4.04163 3.53398 1.91663 1.07245C0.791626 2.9186 1.41663 5.25706 3.16663 6.48783C2.54163 6.48783 1.91663 6.24168 1.29163 5.99552C1.29163 7.84168 2.66663 9.56475 4.54163 10.0571C3.91663 10.1801 3.29163 10.3032 2.66663 10.1801C3.16663 11.7801 4.66663 13.0109 6.54163 13.0109C5.04163 14.1186 2.79163 14.734 0.666626 14.4878C2.54163 15.5955 4.66663 16.334 6.91663 16.334C14.5416 16.334 18.7916 10.0571 18.5416 4.27245C19.4166 3.78014 20.1666 3.04168 20.6666 2.18014Z" fill="white"/>
</svg>
