<svg width="8" height="14" viewBox="0 0 8 14" fill="none" xmlns="http://www.w3.org/2000/svg">
<path d="M4.16228 6.79128C3.54587 6.79261 2.94029 6.95337 2.40434 7.25794C3.159 5.30541 4.40785 3.58247 6.02853 2.25794C6.12997 2.18481 6.21537 2.09168 6.27948 1.9843C6.34359 1.87691 6.38505 1.75754 6.40131 1.63353C6.41758 1.50952 6.40829 1.38349 6.37404 1.2632C6.33978 1.14291 6.28128 1.03091 6.20212 0.934082C6.12297 0.837255 6.02485 0.757654 5.91378 0.700178C5.80272 0.642702 5.68108 0.608567 5.55634 0.599873C5.43159 0.59118 5.30639 0.608112 5.18844 0.649627C5.07048 0.691143 4.96227 0.756364 4.87045 0.841276C1.53787 3.54961 0.0548706 7.29961 0.0548706 9.62461C0.0588182 10.4374 0.296603 11.2318 0.73982 11.9131C1.18304 12.5943 1.81295 13.1335 2.55431 13.4663C3.0552 13.7099 3.6053 13.8354 4.16228 13.8329C4.64006 13.8562 5.11757 13.7821 5.56587 13.6152C6.01418 13.4484 6.42392 13.1922 6.77027 12.8622C7.11663 12.5322 7.39236 12.1352 7.58077 11.6955C7.76918 11.2557 7.86632 10.7822 7.86632 10.3038C7.86632 9.82533 7.76918 9.35186 7.58077 8.91209C7.39236 8.47232 7.11663 8.0754 6.77027 7.7454C6.42392 7.4154 6.01418 7.1592 5.56587 6.99232C5.11757 6.82545 4.64006 6.75138 4.16228 6.77461V6.79128Z" fill="white"/>
</svg>
