<svg width="25" height="17" viewBox="0 0 25 17" fill="none" xmlns="http://www.w3.org/2000/svg">
<path d="M23.7334 2.76256C23.4334 1.76256 22.6834 1.04827 21.6334 0.762556C19.8334 0.333985 12.1834 0.333984 12.1834 0.333984C12.1834 0.333984 4.68338 0.333985 2.73338 0.762556C1.68338 1.04827 0.933369 1.76256 0.633369 2.76256C0.333369 4.6197 0.333374 8.33398 0.333374 8.33398C0.333374 8.33398 0.333379 12.0483 0.783379 13.9054C1.08338 14.9054 1.83337 15.6197 2.88337 15.9054C4.68337 16.334 12.3334 16.334 12.3334 16.334C12.3334 16.334 19.8334 16.334 21.7834 15.9054C22.8334 15.6197 23.5834 14.9054 23.8834 13.9054C24.3334 12.0483 24.3334 8.33398 24.3334 8.33398C24.3334 8.33398 24.3334 4.6197 23.7334 2.76256ZM9.93336 11.7626V4.90541L16.2334 8.33398L9.93336 11.7626Z" fill="white"/>
</svg>
